<mxfile host="app.diagrams.net" modified="2022-01-04T13:51:59.362Z" agent="5.0 (Windows NT 10.0; Win64; x64) AppleWebKit/537.36 (KHTML, like Gecko) Chrome/96.0.4664.110 Safari/537.36" etag="GtBYhS4isbR2BxJ9JQzc" version="16.1.2" type="github">
  <diagram id="6I0OCvxSQrVGMHxT2VVA" name="Page-1">
    <mxGraphModel dx="1038" dy="547" grid="1" gridSize="10" guides="1" tooltips="1" connect="1" arrows="1" fold="1" page="1" pageScale="1" pageWidth="850" pageHeight="1100" math="0" shadow="0">
      <root>
        <mxCell id="0" />
        <mxCell id="1" parent="0" />
        <mxCell id="dKdSaXE48SgPbhcamS2K-30" value="&lt;b&gt;供应链 物流 TMS等&lt;br&gt;&amp;amp;其他财务系统&lt;br&gt;&amp;amp; SAP&lt;/b&gt;" style="whiteSpace=wrap;html=1;strokeColor=none;strokeWidth=1;fillColor=#f5f5f5;fontSize=14;align=left;" parent="1" vertex="1">
          <mxGeometry x="194" y="670" width="1075" height="300" as="geometry" />
        </mxCell>
        <mxCell id="dKdSaXE48SgPbhcamS2K-31" value="&lt;b&gt;营销供应链&lt;br&gt;&lt;br&gt;新方舟&lt;br&gt;-能力中心涵盖范围？&lt;br&gt;&lt;/b&gt;" style="whiteSpace=wrap;html=1;strokeColor=none;strokeWidth=1;fillColor=#f5f5f5;fontSize=14;align=left;verticalAlign=top;" parent="1" vertex="1">
          <mxGeometry x="194" y="500" width="1075" height="160" as="geometry" />
        </mxCell>
        <mxCell id="dKdSaXE48SgPbhcamS2K-32" value="&lt;b&gt;营销应用类、市场推广类系统群&lt;br&gt;-商品、库存、订单是否冗余？&lt;br&gt;&lt;/b&gt;" style="whiteSpace=wrap;html=1;strokeColor=none;strokeWidth=1;fillColor=#f5f5f5;fontSize=14;align=left;verticalAlign=top;" parent="1" vertex="1">
          <mxGeometry x="160" y="330" width="1099" height="140" as="geometry" />
        </mxCell>
        <mxCell id="dKdSaXE48SgPbhcamS2K-33" value="MDM" style="html=1;whiteSpace=wrap;fillColor=#AFFFAF;shape=mxgraph.archimate3.application;appType=node;archiType=square;fontSize=14;verticalAlign=top;" parent="1" vertex="1">
          <mxGeometry x="326.5" y="753" width="410" height="100" as="geometry" />
        </mxCell>
        <mxCell id="dKdSaXE48SgPbhcamS2K-34" style="edgeStyle=elbowEdgeStyle;rounded=1;elbow=vertical;html=1;startSize=10;endArrow=block;endFill=0;endSize=10;jettySize=auto;orthogonalLoop=1;strokeColor=#808080;fontSize=14;dashed=1;" parent="1" source="dKdSaXE48SgPbhcamS2K-35" target="dKdSaXE48SgPbhcamS2K-40" edge="1">
          <mxGeometry relative="1" as="geometry" />
        </mxCell>
        <mxCell id="dKdSaXE48SgPbhcamS2K-35" value="&lt;div&gt;客户主数据&lt;/div&gt;" style="html=1;whiteSpace=wrap;fillColor=#AFFFAF;shape=mxgraph.archimate3.tech;techType=sysSw;fontSize=14;" parent="1" vertex="1">
          <mxGeometry x="339.5" y="780" width="140" height="60" as="geometry" />
        </mxCell>
        <mxCell id="dKdSaXE48SgPbhcamS2K-36" style="edgeStyle=elbowEdgeStyle;rounded=1;elbow=vertical;html=1;startSize=10;endArrow=block;endFill=0;endSize=10;jettySize=auto;orthogonalLoop=1;strokeColor=#808080;fontSize=14;dashed=1;" parent="1" source="dKdSaXE48SgPbhcamS2K-37" target="dKdSaXE48SgPbhcamS2K-45" edge="1">
          <mxGeometry relative="1" as="geometry" />
        </mxCell>
        <mxCell id="dKdSaXE48SgPbhcamS2K-37" value="运营类&lt;br&gt;财务类&lt;br&gt;主数据" style="html=1;whiteSpace=wrap;fillColor=#AFFFAF;shape=mxgraph.archimate3.tech;techType=sysSw;fontSize=14;" parent="1" vertex="1">
          <mxGeometry x="579.5" y="780" width="140" height="60" as="geometry" />
        </mxCell>
        <mxCell id="dKdSaXE48SgPbhcamS2K-38" style="edgeStyle=elbowEdgeStyle;rounded=1;elbow=vertical;html=1;startSize=10;endArrow=open;endFill=0;endSize=10;jettySize=auto;orthogonalLoop=1;strokeColor=#808080;fontSize=14;entryX=0.25;entryY=1;" parent="1" source="dKdSaXE48SgPbhcamS2K-40" target="dKdSaXE48SgPbhcamS2K-49" edge="1">
          <mxGeometry relative="1" as="geometry" />
        </mxCell>
        <mxCell id="dKdSaXE48SgPbhcamS2K-39" style="edgeStyle=elbowEdgeStyle;rounded=1;elbow=vertical;html=1;startSize=10;endArrow=open;endFill=0;endSize=10;jettySize=auto;orthogonalLoop=1;strokeColor=#808080;fontSize=14;entryX=0.25;entryY=1;exitX=0.265;exitY=0.007;exitPerimeter=0;" parent="1" source="dKdSaXE48SgPbhcamS2K-40" target="dKdSaXE48SgPbhcamS2K-47" edge="1">
          <mxGeometry relative="1" as="geometry">
            <Array as="points">
              <mxPoint x="412" y="670" />
            </Array>
          </mxGeometry>
        </mxCell>
        <mxCell id="dKdSaXE48SgPbhcamS2K-40" value="sync 同步" style="html=1;whiteSpace=wrap;fillColor=#AFFFAF;shape=mxgraph.archimate3.service;fontSize=14;" parent="1" vertex="1">
          <mxGeometry x="334.5" y="680" width="150" height="50" as="geometry" />
        </mxCell>
        <mxCell id="dKdSaXE48SgPbhcamS2K-41" style="edgeStyle=elbowEdgeStyle;rounded=1;elbow=vertical;html=1;startSize=10;endArrow=open;endFill=0;endSize=10;jettySize=auto;orthogonalLoop=1;strokeColor=#808080;fontSize=14;" parent="1" source="dKdSaXE48SgPbhcamS2K-45" edge="1">
          <mxGeometry relative="1" as="geometry">
            <Array as="points">
              <mxPoint x="899" y="700" />
            </Array>
            <mxPoint x="1051.5" y="590" as="targetPoint" />
          </mxGeometry>
        </mxCell>
        <mxCell id="dKdSaXE48SgPbhcamS2K-42" style="edgeStyle=elbowEdgeStyle;rounded=1;elbow=vertical;html=1;startSize=10;endArrow=open;endFill=0;endSize=10;jettySize=auto;orthogonalLoop=1;strokeColor=#808080;fontSize=14;entryX=0.5;entryY=1;exitX=0.769;exitY=0.025;exitPerimeter=0;" parent="1" source="dKdSaXE48SgPbhcamS2K-45" target="dKdSaXE48SgPbhcamS2K-51" edge="1">
          <mxGeometry relative="1" as="geometry">
            <Array as="points">
              <mxPoint x="799" y="650" />
            </Array>
          </mxGeometry>
        </mxCell>
        <mxCell id="dKdSaXE48SgPbhcamS2K-43" style="edgeStyle=elbowEdgeStyle;rounded=1;elbow=vertical;html=1;startSize=10;endArrow=open;endFill=0;endSize=10;jettySize=auto;orthogonalLoop=1;strokeColor=#808080;fontSize=14;entryX=0.5;entryY=1;exitX=0.468;exitY=0.025;exitPerimeter=0;" parent="1" source="dKdSaXE48SgPbhcamS2K-45" target="dKdSaXE48SgPbhcamS2K-49" edge="1">
          <mxGeometry relative="1" as="geometry">
            <Array as="points">
              <mxPoint x="689" y="620" />
            </Array>
          </mxGeometry>
        </mxCell>
        <mxCell id="dKdSaXE48SgPbhcamS2K-44" style="edgeStyle=elbowEdgeStyle;rounded=1;elbow=vertical;html=1;startSize=10;endArrow=open;endFill=0;endSize=10;jettySize=auto;orthogonalLoop=1;strokeColor=#808080;fontSize=14;exitX=0.251;exitY=0.002;exitPerimeter=0;" parent="1" source="dKdSaXE48SgPbhcamS2K-45" target="dKdSaXE48SgPbhcamS2K-47" edge="1">
          <mxGeometry relative="1" as="geometry">
            <Array as="points">
              <mxPoint x="579" y="650" />
            </Array>
          </mxGeometry>
        </mxCell>
        <mxCell id="dKdSaXE48SgPbhcamS2K-45" value="Service" style="html=1;whiteSpace=wrap;fillColor=#AFFFAF;shape=mxgraph.archimate3.service;fontSize=14;" parent="1" vertex="1">
          <mxGeometry x="574.5" y="680" width="150" height="50" as="geometry" />
        </mxCell>
        <mxCell id="dKdSaXE48SgPbhcamS2K-46" style="edgeStyle=elbowEdgeStyle;rounded=1;elbow=vertical;html=1;startSize=10;endArrow=open;endFill=0;endSize=10;jettySize=auto;orthogonalLoop=1;strokeColor=#808080;fontSize=14;" parent="1" source="dKdSaXE48SgPbhcamS2K-47" target="dKdSaXE48SgPbhcamS2K-54" edge="1">
          <mxGeometry relative="1" as="geometry" />
        </mxCell>
        <mxCell id="dKdSaXE48SgPbhcamS2K-47" value="客户中心" style="shape=component;align=center;fillColor=#99ffff;gradientColor=none;fontSize=14;" parent="1" vertex="1">
          <mxGeometry x="319" y="510" width="185" height="80" as="geometry" />
        </mxCell>
        <mxCell id="dKdSaXE48SgPbhcamS2K-48" style="edgeStyle=elbowEdgeStyle;rounded=1;elbow=vertical;html=1;startSize=10;endArrow=open;endFill=0;endSize=10;jettySize=auto;orthogonalLoop=1;strokeColor=#808080;fontSize=14;" parent="1" source="dKdSaXE48SgPbhcamS2K-49" target="dKdSaXE48SgPbhcamS2K-55" edge="1">
          <mxGeometry relative="1" as="geometry" />
        </mxCell>
        <mxCell id="dKdSaXE48SgPbhcamS2K-49" value="订单中心" style="shape=component;align=center;fillColor=#99ffff;gradientColor=none;fontSize=14;" parent="1" vertex="1">
          <mxGeometry x="527" y="510" width="185" height="80" as="geometry" />
        </mxCell>
        <mxCell id="dKdSaXE48SgPbhcamS2K-50" style="edgeStyle=elbowEdgeStyle;rounded=1;elbow=vertical;html=1;startSize=10;endArrow=open;endFill=0;endSize=10;jettySize=auto;orthogonalLoop=1;strokeColor=#808080;fontSize=14;" parent="1" source="dKdSaXE48SgPbhcamS2K-51" target="dKdSaXE48SgPbhcamS2K-56" edge="1">
          <mxGeometry relative="1" as="geometry" />
        </mxCell>
        <mxCell id="dKdSaXE48SgPbhcamS2K-51" value="Module" style="shape=component;align=center;fillColor=#99ffff;gradientColor=none;fontSize=14;" parent="1" vertex="1">
          <mxGeometry x="751.5" y="510" width="185" height="80" as="geometry" />
        </mxCell>
        <mxCell id="dKdSaXE48SgPbhcamS2K-52" style="edgeStyle=elbowEdgeStyle;rounded=1;elbow=vertical;html=1;startSize=10;endArrow=open;endFill=0;endSize=10;jettySize=auto;orthogonalLoop=1;strokeColor=#808080;fontSize=14;" parent="1" target="dKdSaXE48SgPbhcamS2K-57" edge="1">
          <mxGeometry relative="1" as="geometry">
            <mxPoint x="1051.5" y="510" as="sourcePoint" />
          </mxGeometry>
        </mxCell>
        <mxCell id="dKdSaXE48SgPbhcamS2K-53" value="Module" style="shape=component;align=center;fillColor=#99ffff;gradientColor=none;fontSize=14;" parent="1" vertex="1">
          <mxGeometry x="969" y="510" width="185" height="80" as="geometry" />
        </mxCell>
        <mxCell id="dKdSaXE48SgPbhcamS2K-54" value="T销客" style="html=1;whiteSpace=wrap;fillColor=#ffff99;shape=mxgraph.archimate3.application;appType=func;archiType=rounded;fontSize=14;" parent="1" vertex="1">
          <mxGeometry x="336.5" y="360" width="150" height="75" as="geometry" />
        </mxCell>
        <mxCell id="dKdSaXE48SgPbhcamS2K-55" value="CPMS" style="html=1;whiteSpace=wrap;fillColor=#ffff99;shape=mxgraph.archimate3.application;appType=collab;archiType=square;fontSize=14;" parent="1" vertex="1">
          <mxGeometry x="544.5" y="360" width="150" height="75" as="geometry" />
        </mxCell>
        <mxCell id="dKdSaXE48SgPbhcamS2K-56" value="T云店" style="html=1;whiteSpace=wrap;fillColor=#ffff99;shape=mxgraph.archimate3.application;appType=event;archiType=rounded;fontSize=14;" parent="1" vertex="1">
          <mxGeometry x="769" y="360" width="150" height="75" as="geometry" />
        </mxCell>
        <mxCell id="dKdSaXE48SgPbhcamS2K-57" value="Process" style="html=1;whiteSpace=wrap;fillColor=#ffff99;shape=mxgraph.archimate3.application;appType=proc;archiType=rounded;fontSize=14;" parent="1" vertex="1">
          <mxGeometry x="976.5" y="360" width="150" height="75" as="geometry" />
        </mxCell>
        <mxCell id="dKdSaXE48SgPbhcamS2K-58" value="Technology" style="text;html=1;strokeColor=none;fillColor=none;align=center;verticalAlign=middle;whiteSpace=wrap;fontSize=14;" parent="1" vertex="1">
          <mxGeometry x="1269" y="751" width="240" height="20" as="geometry" />
        </mxCell>
        <mxCell id="dKdSaXE48SgPbhcamS2K-59" value="Application" style="text;html=1;strokeColor=none;fillColor=none;align=center;verticalAlign=middle;whiteSpace=wrap;fontSize=14;" parent="1" vertex="1">
          <mxGeometry x="1269" y="541" width="240" height="20" as="geometry" />
        </mxCell>
        <mxCell id="dKdSaXE48SgPbhcamS2K-60" value="Business" style="text;html=1;strokeColor=none;fillColor=none;align=center;verticalAlign=middle;whiteSpace=wrap;fontSize=14;" parent="1" vertex="1">
          <mxGeometry x="1259" y="389" width="240" height="20" as="geometry" />
        </mxCell>
        <mxCell id="dKdSaXE48SgPbhcamS2K-61" style="edgeStyle=elbowEdgeStyle;rounded=1;elbow=vertical;html=1;dashed=1;startSize=10;endArrow=block;endFill=0;endSize=10;jettySize=auto;orthogonalLoop=1;strokeColor=#808080;fontSize=14;entryX=0.5;entryY=0;entryDx=0;entryDy=0;" parent="1" source="dKdSaXE48SgPbhcamS2K-62" target="dKdSaXE48SgPbhcamS2K-32" edge="1">
          <mxGeometry relative="1" as="geometry" />
        </mxCell>
        <mxCell id="dKdSaXE48SgPbhcamS2K-62" value="" style="html=1;whiteSpace=wrap;fillColor=#ffff99;shape=mxgraph.archimate3.actor;fontSize=14;" parent="1" vertex="1">
          <mxGeometry x="696.5" y="180" width="50" height="95" as="geometry" />
        </mxCell>
        <mxCell id="dKdSaXE48SgPbhcamS2K-63" value="Title" style="text;strokeColor=none;fillColor=none;html=1;fontSize=24;fontStyle=1;verticalAlign=middle;align=center;" parent="1" vertex="1">
          <mxGeometry x="50" y="70" width="1590" height="40" as="geometry" />
        </mxCell>
      </root>
    </mxGraphModel>
  </diagram>
</mxfile>
